<svg width="299" height="298" viewBox="0 0 299 298" fill="none" xmlns="http://www.w3.org/2000/svg">
<path fill-rule="evenodd" clip-rule="evenodd" d="M147.523 128L149.014 129.419C152.774 132.995 157.845 135.186 163.43 135.186C163.519 135.186 163.608 135.185 163.697 135.184L165.287 135.164L165.784 136.682C166.603 139.185 167.046 141.857 167.046 144.628C167.046 156.476 158.978 166.425 148.063 169.247L147.523 169.387L146.982 169.247C136.067 166.425 128 156.476 128 144.628C128 141.857 128.442 139.185 129.261 136.682L129.758 135.164L131.349 135.184C131.438 135.185 131.526 135.186 131.615 135.186C137.2 135.186 142.271 132.995 146.031 129.419L147.523 128ZM132.962 139.508C132.555 141.145 132.338 142.86 132.338 144.628C132.338 154.242 138.754 162.357 147.523 164.879C156.292 162.357 162.707 154.242 162.707 144.628C162.707 142.86 162.491 141.145 162.084 139.508C156.582 139.218 151.543 137.162 147.523 133.895C143.503 137.162 138.464 139.218 132.962 139.508Z" fill="#8B5CF6"/>
</svg>
